<?xml version="1.0" encoding="UTF-8"?>
<svg id="_图层_1" data-name=" 图层 1" xmlns="http://www.w3.org/2000/svg" version="1.1" viewBox="0 0 576 512">
  <defs>
    <style>
      .cls-1 {
        fill: #000;
        stroke-width: 0px;
      }

      .cls-2 {
        isolation: isolate;
      }
    </style>
  </defs>
  <g class="cls-2">
    <g class="cls-2">
      <g class="cls-2">
        <path class="cls-1" d="M58.2,334.9c9.2,37.2,36.8,58.5,86.8,58.5s76.2-24.4,76.2-54.4-16-50.1-83.9-65.3c-71.5-16.1-99.5-37.8-99.5-79.6s32.8-76.6,103-76.6,104,39.8,108.2,76.7h-33.7c-6.6-29-27.1-51.1-76-51.1s-66.9,18.1-66.9,48.6,19.8,41.9,77.7,54.9c91,20.4,105.7,53.3,105.7,89.6s-36.2,82.2-112.6,82.2-112.5-41.6-118.7-83.5h33.7Z"/>
        <path class="cls-1" d="M355.7,281.5v133.5h-32.9V121.7h120c64.6,0,98.9,31.8,98.9,77.7s-24.2,61.4-57.8,68.8c30,6.8,52.4,25.7,52.4,76v11.9c0,20.4-1.5,47.1,4.2,58.8h-32.6c-5.9-12.6-5-35.8-5-62v-7c0-45.3-14.4-64.5-74.2-64.5h-73ZM355.7,255.2h74.2c53.2,0,77.3-18.2,77.3-54.2s-24.2-53.1-71.3-53.1h-80.1v107.3Z"/>
      </g>
    </g>
  </g>
</svg>